<svg width="6" height="10" viewBox="0 0 6 10" fill="none" xmlns="http://www.w3.org/2000/svg">
<path d="M0.687493 9.93747C0.611961 9.93493 0.537745 9.91699 0.469393 9.88475C0.40104 9.85251 0.339993 9.80664 0.289994 9.74997C0.184656 9.6445 0.125488 9.50154 0.125488 9.35247C0.125488 9.20341 0.184656 9.06044 0.289994 8.95497L4.03999 5.20497L0.289994 1.45497C0.2455 1.34696 0.235737 1.22778 0.262059 1.11397C0.288381 1.00016 0.349483 0.897372 0.436881 0.819868C0.52428 0.742363 0.63364 0.693991 0.749781 0.681466C0.865921 0.668941 0.983079 0.692884 1.08499 0.749973L5.20999 4.87497C5.31533 4.98044 5.3745 5.12341 5.3745 5.27247C5.3745 5.42154 5.31533 5.5645 5.20999 5.66997L1.08499 9.74997C1.03499 9.80664 0.973946 9.85251 0.905594 9.88475C0.837242 9.91699 0.763025 9.93493 0.687493 9.93747Z" fill="white"/>
</svg>
