<svg width="6" height="10" viewBox="0 0 6 10" fill="none" xmlns="http://www.w3.org/2000/svg">
<path d="M5.31251 9.93747C5.38804 9.93493 5.46226 9.91699 5.53061 9.88475C5.59896 9.85251 5.66001 9.80664 5.71001 9.74997C5.81534 9.6445 5.87451 9.50154 5.87451 9.35247C5.87451 9.20341 5.81534 9.06044 5.71001 8.95497L1.96001 5.20497L5.71001 1.45497C5.7545 1.34696 5.76426 1.22778 5.73794 1.11397C5.71162 1.00016 5.65052 0.897372 5.56312 0.819868C5.47572 0.742363 5.36636 0.693991 5.25022 0.681466C5.13408 0.668941 5.01692 0.692884 4.91501 0.749973L0.790007 4.87497C0.684669 4.98044 0.625502 5.12341 0.625502 5.27247C0.625502 5.42154 0.684669 5.5645 0.790007 5.66997L4.91501 9.74997C4.96501 9.80664 5.02605 9.85251 5.09441 9.88475C5.16276 9.91699 5.23697 9.93493 5.31251 9.93747Z" fill="white"/>
</svg>
