<svg width="24" height="24" viewBox="0 0 24 24" fill="none" xmlns="http://www.w3.org/2000/svg">
<path d="M10.79 4.08991C9.46183 4.30419 8.21562 4.8713 7.18163 5.73197C6.14763 6.59264 5.36381 7.71526 4.91211 8.98249C4.4604 10.2497 4.3574 11.615 4.61386 12.9357C4.87031 14.2563 5.47682 15.4838 6.36998 16.4899C6.46583 16.5991 6.53476 16.7293 6.57123 16.87C6.6077 17.0106 6.61069 17.1579 6.57998 17.2999L6.04998 19.4499C6.03016 19.5311 6.03386 19.6162 6.06064 19.6953C6.08742 19.7745 6.13618 19.8443 6.20121 19.8968C6.26624 19.9492 6.34486 19.9821 6.42788 19.9915C6.51089 20.0009 6.59486 19.9865 6.66998 19.9499L9.16998 18.7499C9.37675 18.675 9.60322 18.675 9.80998 18.7499C10.8924 19.0792 12.0352 19.1599 13.1531 18.9862C14.2711 18.8125 15.3355 18.3888 16.2669 17.7466C17.1984 17.1044 17.9729 16.2603 18.5329 15.2772C19.0928 14.2941 19.4237 13.1973 19.5009 12.0686C19.5781 10.9398 19.3997 9.8082 18.9788 8.75801C18.5579 7.70782 17.9055 6.76612 17.0702 6.00308C16.2348 5.24005 15.2381 4.67533 14.1542 4.351C13.0703 4.02668 11.9271 3.9511 10.81 4.12991L10.79 4.08991ZM8.99998 12.4999C8.8022 12.4999 8.60886 12.4413 8.44441 12.3314C8.27996 12.2215 8.15179 12.0653 8.0761 11.8826C8.00041 11.6999 7.98061 11.4988 8.0192 11.3048C8.05778 11.1108 8.15302 10.9327 8.29288 10.7928C8.43273 10.653 8.61091 10.5577 8.80489 10.5191C8.99887 10.4805 9.19994 10.5003 9.38267 10.576C9.56539 10.6517 9.72157 10.7799 9.83145 10.9443C9.94133 11.1088 9.99998 11.3021 9.99998 11.4999C9.99998 11.7651 9.89462 12.0195 9.70709 12.207C9.51955 12.3946 9.2652 12.4999 8.99998 12.4999ZM12 12.4999C11.8022 12.4999 11.6089 12.4413 11.4444 12.3314C11.28 12.2215 11.1518 12.0653 11.0761 11.8826C11.0004 11.6999 10.9806 11.4988 11.0192 11.3048C11.0578 11.1108 11.153 10.9327 11.2929 10.7928C11.4327 10.653 11.6109 10.5577 11.8049 10.5191C11.9989 10.4805 12.1999 10.5003 12.3827 10.576C12.5654 10.6517 12.7216 10.7799 12.8315 10.9443C12.9413 11.1088 13 11.3021 13 11.4999C13 11.7651 12.8946 12.0195 12.7071 12.207C12.5196 12.3946 12.2652 12.4999 12 12.4999ZM15 12.4999C14.8022 12.4999 14.6089 12.4413 14.4444 12.3314C14.28 12.2215 14.1518 12.0653 14.0761 11.8826C14.0004 11.6999 13.9806 11.4988 14.0192 11.3048C14.0578 11.1108 14.153 10.9327 14.2929 10.7928C14.4327 10.653 14.6109 10.5577 14.8049 10.5191C14.9989 10.4805 15.1999 10.5003 15.3827 10.576C15.5654 10.6517 15.7216 10.7799 15.8315 10.9443C15.9413 11.1088 16 11.3021 16 11.4999C16 11.7651 15.8946 12.0195 15.7071 12.207C15.5196 12.3946 15.2652 12.4999 15 12.4999Z" fill="#000D26"/>
</svg>
