<svg width="24" height="24" viewBox="0 0 24 24" fill="none" xmlns="http://www.w3.org/2000/svg">
<path d="M19.39 13C19.1894 14.0347 18.7734 15.0157 18.1691 15.8793C17.5649 16.743 16.7858 17.4699 15.8825 18.013C14.9792 18.5561 13.9718 18.9033 12.9257 19.032C11.8795 19.1607 10.818 19.068 9.81003 18.76C9.60326 18.6851 9.3768 18.6851 9.17003 18.76L6.67003 20C6.59403 20.0377 6.50876 20.0526 6.42448 20.043C6.3402 20.0333 6.26051 19.9995 6.19499 19.9456C6.12948 19.8917 6.08094 19.8201 6.05522 19.7392C6.0295 19.6584 6.0277 19.5718 6.05003 19.49L6.58003 17.35C6.61155 17.208 6.60895 17.0605 6.57245 16.9197C6.53594 16.7789 6.46657 16.6488 6.37003 16.54C5.5199 15.5837 4.92786 14.4262 4.64993 13.1772C4.372 11.9282 4.41738 10.6289 4.78177 9.40228C5.14616 8.17569 5.81752 7.06237 6.73229 6.16768C7.64707 5.27298 8.77502 4.6265 10.0094 4.28942C11.2438 3.95234 12.5437 3.93581 13.7863 4.24139C15.0288 4.54697 16.1729 5.16456 17.1101 6.0357C18.0473 6.90685 18.7468 8.00274 19.1422 9.21967C19.5377 10.4366 19.6161 11.7343 19.37 12.99L19.39 13Z" stroke="#000D26" stroke-width="1.5" stroke-linecap="round" stroke-linejoin="round"/>
<path d="M9 11.49V11.5" stroke="#000D26" stroke-width="2" stroke-linecap="round" stroke-linejoin="round"/>
<path d="M12 11.49V11.5" stroke="#000D26" stroke-width="2" stroke-linecap="round" stroke-linejoin="round"/>
<path d="M15 11.49V11.5" stroke="#000D26" stroke-width="2" stroke-linecap="round" stroke-linejoin="round"/>
</svg>
