<svg width="589" height="404" viewBox="0 0 589 404" fill="none" xmlns="http://www.w3.org/2000/svg">
<path d="M507.266 -443.774C444.584 -336.918 352.875 -164.069 506.353 -165.508C701.665 -167.338 862.188 -428.294 867.633 -250.258" stroke="#ECF3FE" stroke-width="2.8065"/>
<path d="M477.796 -411.396C415.114 -304.539 323.406 -131.691 476.884 -133.129C672.195 -134.96 832.718 -395.916 838.163 -217.88" stroke="#ECF3FE" stroke-width="2.8065"/>
<path d="M448.797 -378.596C386.115 -271.739 294.407 -98.8909 447.885 -100.329C643.196 -102.159 803.72 -363.116 809.164 -185.08" stroke="#ECF3FE" stroke-width="2.8065"/>
<path d="M420.34 -345.323C357.658 -238.467 265.95 -65.6185 419.428 -67.0568C614.739 -68.887 775.263 -329.843 780.707 -151.807" stroke="#ECF3FE" stroke-width="2.8065"/>
<path d="M392.517 -311.52C329.835 -204.663 238.127 -31.8152 391.605 -33.2534C586.916 -35.0837 747.44 -296.04 752.884 -118.004" stroke="#ECF3FE" stroke-width="2.8065"/>
<path d="M365.446 -277.112C302.764 -170.255 211.056 2.59264 364.534 1.1544C559.845 -0.675863 720.369 -261.632 725.813 -83.5961" stroke="#ECF3FE" stroke-width="2.8065"/>
<path d="M339.286 -242.004C276.604 -135.148 184.896 37.7004 338.374 36.2622C533.686 34.4319 694.209 -226.524 699.653 -48.4883" stroke="#ECF3FE" stroke-width="2.8065"/>
<path d="M314.26 -206.081C251.578 -99.2247 159.87 73.6234 313.348 72.1852C508.659 70.3549 669.183 -190.601 674.627 -12.5654" stroke="#ECF3FE" stroke-width="2.8065"/>
<path d="M290.688 -169.187C228.006 -62.3303 136.297 110.518 289.775 109.08C485.087 107.249 645.61 -153.707 651.055 24.329" stroke="#ECF3FE" stroke-width="2.8065"/>
<path d="M269.051 -131.123C206.369 -24.2663 114.66 148.582 268.138 147.144C463.45 145.313 623.973 -115.643 629.418 62.393" stroke="#ECF3FE" stroke-width="2.8065"/>
<path d="M250.092 -91.6718C187.41 15.185 95.7014 188.033 249.179 186.595C444.491 184.765 605.014 -76.1917 610.459 101.844" stroke="#ECF3FE" stroke-width="2.8065"/>
<path d="M234.536 -51.0707C171.854 55.7861 80.1462 228.634 233.624 227.196C428.936 225.366 589.459 -35.5907 594.903 142.445" stroke="#ECF3FE" stroke-width="2.8065"/>
</svg>
