<svg width="285" height="1117" viewBox="0 0 285 1117" fill="none" xmlns="http://www.w3.org/2000/svg">
<g clip-path="url(#clip0_99_516)">
<path d="M-437.65 121.35C-329.618 181.984 -155.053 270.382 -159.416 116.959C-164.968 -78.282 -428.936 -233.803 -251.036 -242.639" stroke="white" stroke-opacity="0.75" stroke-width="2.8065"/>
<path d="M-404.303 149.718C-296.271 210.353 -121.706 298.75 -126.069 145.328C-131.621 -49.9136 -395.589 -205.435 -217.69 -214.271" stroke="white" stroke-opacity="0.75" stroke-width="2.8065"/>
<path d="M-370.494 177.536C-262.462 238.171 -87.8979 326.568 -92.2608 173.145C-97.8128 -22.0957 -361.781 -177.617 -183.881 -186.453" stroke="white" stroke-opacity="0.75" stroke-width="2.8065"/>
<path d="M-336.167 204.71C-228.135 265.344 -53.5705 353.742 -57.9334 200.319C-63.4854 5.07809 -327.453 -150.443 -149.554 -159.279" stroke="white" stroke-opacity="0.75" stroke-width="2.8065"/>
<path d="M-301.249 231.121C-193.217 291.755 -18.653 380.152 -23.0159 226.73C-28.5679 31.4885 -292.536 -124.032 -114.636 -132.869" stroke="white" stroke-opacity="0.75" stroke-width="2.8065"/>
<path d="M-265.649 256.606C-157.617 317.24 16.9471 405.638 12.5842 252.215C7.03215 56.9741 -256.936 -98.5469 -79.036 -107.383" stroke="white" stroke-opacity="0.75" stroke-width="2.8065"/>
<path d="M-229.256 280.943C-121.224 341.578 53.3406 429.975 48.9778 276.552C43.4257 81.3112 -220.542 -74.2097 -42.6424 -83.0462" stroke="white" stroke-opacity="0.75" stroke-width="2.8065"/>
<path d="M-191.919 303.809C-83.8873 364.443 90.6771 452.84 86.3142 299.418C80.7621 104.176 -183.206 -51.3445 -5.30599 -60.1809" stroke="white" stroke-opacity="0.75" stroke-width="2.8065"/>
<path d="M-153.45 324.716C-45.4176 385.35 129.147 473.748 124.784 320.325C119.232 125.084 -144.736 -30.4368 33.1637 -39.2732" stroke="white" stroke-opacity="0.75" stroke-width="2.8065"/>
<path d="M-113.644 342.92C-5.61244 403.554 168.952 491.952 164.589 338.529C159.037 143.288 -104.931 -12.2329 72.9689 -21.0694" stroke="white" stroke-opacity="0.75" stroke-width="2.8065"/>
<path d="M-72.7543 357.699C35.2777 418.333 209.842 506.73 205.479 353.308C199.927 158.067 -64.0409 2.54563 113.859 -6.2908" stroke="white" stroke-opacity="0.75" stroke-width="2.8065"/>
</g>
<defs>
<clipPath id="clip0_99_516">
<rect width="285" height="1117" fill="white"/>
</clipPath>
</defs>
</svg>
