<svg width="28" height="28" viewBox="0 0 28 28" fill="none" xmlns="http://www.w3.org/2000/svg">
<path d="M22.1666 25.6667C22.1666 26.3111 21.6443 26.8334 21 26.8334C20.3556 26.8334 19.8333 26.3111 19.8333 25.6667C19.8333 25.0224 20.3556 24.5001 21 24.5001C21.6443 24.5001 22.1666 25.0224 22.1666 25.6667Z" fill="white"/>
<path d="M26.8333 21.0001C26.8333 21.6444 26.311 22.1667 25.6666 22.1667C25.0223 22.1667 24.5 21.6444 24.5 21.0001C24.5 20.3557 25.0223 19.8334 25.6666 19.8334C26.311 19.8334 26.8333 20.3557 26.8333 21.0001Z" fill="white"/>
<path d="M3.49996 7.00008C3.49996 7.64441 2.97762 8.16675 2.33329 8.16675C1.68896 8.16675 1.16663 7.64441 1.16663 7.00008C1.16663 6.35575 1.68896 5.83341 2.33329 5.83341C2.97762 5.83341 3.49996 6.35575 3.49996 7.00008Z" fill="white"/>
<path d="M8.16663 2.33341C8.16663 2.97775 7.64429 3.50008 6.99996 3.50008C6.35563 3.50008 5.83329 2.97775 5.83329 2.33341C5.83329 1.68908 6.35563 1.16675 6.99996 1.16675C7.64429 1.16675 8.16663 1.68908 8.16663 2.33341Z" fill="white"/>
<path fill-rule="evenodd" clip-rule="evenodd" d="M14 7.56348L13.2391 10.7014C12.9349 11.9557 11.9556 12.935 10.7013 13.2392L7.56336 14.0001L10.7013 14.761C11.9556 15.0651 12.9349 16.0445 13.2391 17.2987L14 20.4367L14.7609 17.2987C15.065 16.0445 16.0443 15.0651 17.2986 14.761L20.4366 14.0001L17.2986 13.2392C16.0443 12.935 15.065 11.9557 14.7609 10.7014L14 7.56348ZM15.5227 5.8644C15.1355 4.26753 12.8644 4.26753 12.4772 5.86441L11.4117 10.2583C11.2735 10.8284 10.8283 11.2736 10.2582 11.4118L5.86428 12.4773C4.26741 12.8645 4.26741 15.1356 5.86428 15.5229L10.2582 16.5883C10.8283 16.7266 11.2735 17.1717 11.4117 17.7418L12.4772 22.1358C12.8644 23.7326 15.1355 23.7326 15.5227 22.1358L16.5882 17.7418C16.7264 17.1717 17.1716 16.7266 17.7417 16.5883L22.1356 15.5229C23.7325 15.1356 23.7325 12.8645 22.1356 12.4773L17.7417 11.4118C17.1716 11.2736 16.7264 10.8284 16.5882 10.2583L15.5227 5.8644Z" fill="white"/>
<path fill-rule="evenodd" clip-rule="evenodd" d="M10.5054 26.0339C10.3026 26.5772 9.69777 26.8532 9.15448 26.6505C5.63531 25.337 2.8085 22.6102 1.36465 19.1601C1.14078 18.6251 1.39296 18.01 1.9279 17.7861C2.46285 17.5622 3.07799 17.8144 3.30186 18.3494C4.5222 21.2654 6.91425 23.5728 9.8888 24.683C10.4321 24.8858 10.7081 25.4906 10.5054 26.0339Z" fill="white"/>
<path fill-rule="evenodd" clip-rule="evenodd" d="M26.0345 10.5243C25.4914 10.7275 24.8864 10.4519 24.6832 9.9088C23.5642 6.91788 21.2299 4.51592 18.2808 3.30467C17.7444 3.08435 17.4882 2.4709 17.7085 1.93448C17.9288 1.39806 18.5423 1.14182 19.0787 1.36214C22.5664 2.79464 25.3255 5.63272 26.65 9.17296C26.8532 9.71609 26.5776 10.3211 26.0345 10.5243Z" fill="white"/>
</svg>
