<svg width="29" height="29" viewBox="0 0 29 29" fill="none" xmlns="http://www.w3.org/2000/svg">
<path d="M9.29289 11.7451L18.9596 8.5309C19.1715 8.46207 19.3983 8.45318 19.615 8.5052C19.8316 8.55723 20.0297 8.66816 20.1872 8.82571C20.3448 8.98327 20.4557 9.18133 20.5077 9.39799C20.5598 9.61465 20.5509 9.84148 20.4821 10.0534L17.2679 19.7201C17.1884 19.9618 17.0347 20.1723 16.8285 20.3215C16.6224 20.4708 16.3744 20.5511 16.12 20.5511C15.8655 20.5511 15.6175 20.4708 15.4114 20.3215C15.2053 20.1723 15.0515 19.9618 14.9721 19.7201L13.7637 16.0951C13.7047 15.9144 13.6039 15.7503 13.4696 15.6159C13.3352 15.4815 13.171 15.3807 12.9904 15.3217L9.36539 14.1134C9.09008 14.0669 8.83938 13.9264 8.65591 13.716C8.47243 13.5055 8.36751 13.238 8.35896 12.9589C8.35042 12.6799 8.43879 12.4064 8.60905 12.1851C8.7793 11.9638 9.02094 11.8083 9.29289 11.7451Z" stroke="white" stroke-width="1.8125" stroke-miterlimit="10"/>
<path d="M13.5449 15.4546L15.2487 13.7509" stroke="white" stroke-width="1.8125" stroke-miterlimit="10" stroke-linecap="round"/>
</svg>
