<svg width="31" height="31" viewBox="0 0 31 31" fill="none" xmlns="http://www.w3.org/2000/svg">
<path d="M24.25 28.4362C24.25 29.1265 23.6904 29.6862 23 29.6862C22.3096 29.6862 21.75 29.1265 21.75 28.4362C21.75 27.7458 22.3096 27.1862 23 27.1862C23.6904 27.1862 24.25 27.7458 24.25 28.4362Z" fill="#1B6AFC"/>
<path d="M29.25 23.4362C29.25 24.1265 28.6904 24.6862 28 24.6862C27.3096 24.6862 26.75 24.1265 26.75 23.4362C26.75 22.7458 27.3096 22.1862 28 22.1862C28.6904 22.1862 29.25 22.7458 29.25 23.4362Z" fill="#1B6AFC"/>
<path d="M4.25 8.43616C4.25 9.12651 3.69036 9.68616 3 9.68616C2.30964 9.68616 1.75 9.12651 1.75 8.43616C1.75 7.7458 2.30964 7.18616 3 7.18616C3.69036 7.18616 4.25 7.7458 4.25 8.43616Z" fill="#1B6AFC"/>
<path d="M9.25 3.43616C9.25 4.12651 8.69036 4.68616 8 4.68616C7.30964 4.68616 6.75 4.12651 6.75 3.43616C6.75 2.7458 7.30964 2.18616 8 2.18616C8.69036 2.18616 9.25 2.7458 9.25 3.43616Z" fill="#1B6AFC"/>
<path fill-rule="evenodd" clip-rule="evenodd" d="M15.5 9.0398L14.6847 12.4019C14.3589 13.7458 13.3096 14.795 11.9657 15.1209L8.60364 15.9362L11.9657 16.7514C13.3096 17.0773 14.3589 18.1266 14.6847 19.4704L15.5 22.8325L16.3153 19.4704C16.6411 18.1266 17.6904 17.0773 19.0343 16.7514L22.3964 15.9362L19.0343 15.1209C17.6904 14.795 16.6411 13.7458 16.3153 12.4019L15.5 9.0398ZM17.1316 7.21936C16.7167 5.50842 14.2833 5.50842 13.8684 7.21936L12.7269 11.9271C12.5788 12.538 12.1018 13.0149 11.491 13.163L6.7832 14.3046C5.07226 14.7195 5.07227 17.1528 6.78321 17.5677L11.491 18.7093C12.1018 18.8574 12.5788 19.3343 12.7269 19.9452L13.8684 24.653C14.2833 26.3639 16.7167 26.3639 17.1316 24.653L18.2731 19.9452C18.4212 19.3343 18.8982 18.8574 19.509 18.7093L24.2168 17.5677C25.9277 17.1528 25.9277 14.7195 24.2168 14.3046L19.509 13.163C18.8982 13.0149 18.4212 12.538 18.2731 11.9271L17.1316 7.21936Z" fill="#1B6AFC"/>
<path fill-rule="evenodd" clip-rule="evenodd" d="M11.7558 28.8295C11.5385 29.4116 10.8905 29.7074 10.3084 29.4901C6.53787 28.0828 3.50916 25.1613 1.96217 21.4647C1.72231 20.8915 1.9925 20.2325 2.56566 19.9926C3.13881 19.7528 3.79789 20.0229 4.03775 20.5961C5.34525 23.7205 7.90817 26.1927 11.0952 27.3822C11.6773 27.5994 11.973 28.2474 11.7558 28.8295Z" fill="#1B6AFC"/>
<path fill-rule="evenodd" clip-rule="evenodd" d="M28.3942 12.2121C27.8122 12.4298 27.164 12.1346 26.9463 11.5526C25.7474 8.34808 23.2463 5.77455 20.0867 4.47679C19.5119 4.24073 19.2374 3.58346 19.4734 3.00873C19.7095 2.434 20.3668 2.15945 20.9415 2.3955C24.6783 3.93032 27.6346 6.97113 29.0536 10.7642C29.2713 11.3462 28.9761 11.9944 28.3942 12.2121Z" fill="#1B6AFC"/>
</svg>
