<svg width="29" height="28" viewBox="0 0 29 28" fill="none" xmlns="http://www.w3.org/2000/svg">
<path d="M21.1765 12.145V19.8333C21.1765 20.7615 20.8078 21.6518 20.1514 22.3082C19.495 22.9645 18.6048 23.3333 17.6765 23.3333H10.6765C9.74826 23.3333 8.85802 22.9645 8.20164 22.3082C7.54526 21.6518 7.17651 20.7615 7.17651 19.8333V8.16663C7.17651 7.23837 7.54526 6.34813 8.20164 5.69175C8.85802 5.03538 9.74826 4.66663 10.6765 4.66663H13.6982C14.0042 4.66791 14.2975 4.78942 14.5148 5.00496L20.8382 11.3283C21.0537 11.5456 21.1752 11.8389 21.1765 12.145Z" stroke="white" stroke-width="1.14706" stroke-miterlimit="10" stroke-linecap="round"/>
<path d="M14.1765 5.22664V10.5C14.1765 10.8094 14.2994 11.1061 14.5182 11.3249C14.737 11.5437 15.0338 11.6666 15.3432 11.6666H20.6165C20.6622 11.666 20.7067 11.652 20.7444 11.6263C20.7822 11.6006 20.8116 11.5644 20.829 11.5222C20.8464 11.4799 20.851 11.4335 20.8423 11.3887C20.8335 11.3439 20.8118 11.3026 20.7798 11.27L14.5732 5.06331C14.5406 5.03133 14.4993 5.00963 14.4545 5.00089C14.4096 4.99215 14.3632 4.99677 14.321 5.01416C14.2787 5.03155 14.2425 5.06095 14.2169 5.09872C14.1912 5.13649 14.1772 5.18097 14.1765 5.22664Z" stroke="white" stroke-width="1.14706" stroke-linecap="round" stroke-linejoin="round"/>
<path d="M14.1765 15.1667V19.8334" stroke="white" stroke-width="1.14706" stroke-linecap="round" stroke-linejoin="round"/>
<path d="M12.3448 16.9984L14.1765 15.1667L16.0082 16.9984" stroke="white" stroke-width="1.14706" stroke-linecap="round" stroke-linejoin="round"/>
</svg>
